<?xml version="1.0" ?>

<!-- Uploaded to: SVG Repo, www.svgrepo.com, Generator: SVG Repo Mixer Tools -->
<svg width="30px" height="30px" viewBox="0 0 64 64" version="1.1" xml:space="preserve" xmlns="http://www.w3.org/2000/svg" xmlns:xlink="http://www.w3.org/1999/xlink">

<style type="text/css">
	.st0{fill:#FFEEA9;}
	.st1{fill:#D32436;}
	.st2{fill:#8DD1D3;}
	.st3{fill:#330D00;}
	.st4{fill:none;stroke:#330D00;stroke-linecap:round;stroke-linejoin:round;stroke-miterlimit:10;}
</style>

<g id="_x34_0-Id_Card"/>

<g id="_x33_9-Formula"/>

<g id="_x33_8-Elbow"/>

<g id="_x33_7-Diploma"/>

<g id="_x33_6-Laptop"/>

<g id="_x33_5-Brush"/>

<g id="_x33_4-Baseball"/>

<g id="_x33_3-Student"/>

<g id="_x33_2-Highlighter"/>

<g id="_x33_1-Ruler"/>

<g id="_x33_0-Caliper"/>

<g id="_x32_9-Ruler_Elbow"/>

<g id="_x32_8-Abacus"/>

<g id="_x32_7-Id_Card"/>

<g id="_x32_6-Eraser"/>

<g id="_x32_5-Pencil"/>

<g id="_x32_4-Ink"/>

<g id="_x32_3-Graduation_Cap"/>

<g id="_x32_2-_Sling_Bag"/>

<g id="_x32_1-Rugby_Ball"/>

<g id="_x32_0-Clock"/>

<g id="_x31_9-Certificate"/>

<g id="_x31_8-Idea"/>

<g id="_x31_7-Bookshelf"/>

<g id="_x31_6-Formula"/>

<g id="_x31_5-Bell">

<g>

<g>

<path class="st2" d="M32,62.9L32,62.9c-3.7,0-6.6-3-6.6-6.6v0h13.2v0C38.6,59.9,35.7,62.9,32,62.9z"/>

</g>

<g>

<path class="st1" d="M54.1,51.4v4.9H9.9v-4.9c0-3.4,5.7-6.1,5.7-6.1V22.1c0-7.9,7.3-14.3,16.4-14.3c4.5,0,8.6,1.6,11.6,4.2     c3,2.6,4.8,6.2,4.8,10.2v23.2C48.4,45.2,54.1,48,54.1,51.4z"/>

</g>

<g>

<path class="st3" d="M49.5,44.6V22.1c0-4.1-1.8-8-5.2-11c-2-1.7-4.3-2.9-6.8-3.7l0-1.9c0-1.5-0.6-2.9-1.6-3.9     C34.9,0.6,33.5,0,32,0c-3,0-5.5,2.5-5.5,5.5v1.9c-7,2-12,7.8-12,14.6v22.5c-1.6,0.9-5.7,3.4-5.7,6.8v4.9c0,0.6,0.5,1.1,1.1,1.1     h14.5c0.5,3.7,3.7,6.6,7.6,6.6s7.1-2.9,7.6-6.6h14.5c0.6,0,1.1-0.5,1.1-1.1v-4.9C55.2,48,51.1,45.5,49.5,44.6z M28.7,5.5     c0-1.8,1.5-3.3,3.3-3.3c0.9,0,1.7,0.3,2.3,1c0.6,0.6,1,1.4,1,2.3l0,1.4c-1.1-0.2-2.2-0.3-3.3-0.3c-1.1,0-2.2,0.1-3.3,0.3V5.5z      M32,61.8c-2.7,0-4.9-1.9-5.4-4.4h10.8C36.9,59.9,34.7,61.8,32,61.8z M53,55.2H38.6H25.4H11v-3.8c0-2.2,3.7-4.5,5.1-5.1     c0.4-0.2,0.6-0.6,0.6-1V22.1c0-7.3,6.9-13.2,15.3-13.2c4.1,0,8,1.4,10.9,3.9c2.9,2.5,4.4,5.8,4.4,9.3v23.2c0,0.4,0.2,0.8,0.6,1     c1.3,0.6,5.1,2.9,5.1,5.1V55.2z"/>

</g>

</g>

</g>

<g id="_x31_4-Magnifying_Glass"/>

<g id="_x31_3-Calculator"/>

<g id="_x31_2-Eyeglasses"/>

<g id="_x31_1-Bus"/>

<g id="_x31_0-Trophy"/>

<g id="_x39_-Globe"/>

<g id="_x38_-Basket_Ball"/>

<g id="_x37_-Pen"/>

<g id="_x36_-Board"/>

<g id="_x35_-Bag"/>

<g id="_x34_-Exam"/>

<g id="_x33_-Book"/>

<g id="_x32_-Ruler"/>

<g id="_x31_-Building"/>

</svg>