<!DOCTYPE svg PUBLIC "-//W3C//DTD SVG 1.1//EN" "http://www.w3.org/Graphics/SVG/1.1/DTD/svg11.dtd">

<!-- Uploaded to: SVG Repo, www.svgrepo.com, Transformed by: SVG Repo Mixer Tools -->
<svg fill="red" height="35px" width="35px" version="1.1" id="Capa_1" xmlns="http://www.w3.org/2000/svg" xmlns:xlink="http://www.w3.org/1999/xlink" viewBox="0 0 261.029 261.029" xml:space="preserve" stroke="red" stroke-width="4.437493">

<g id="SVGRepo_bgCarrier" stroke-width="0"/>

<g id="SVGRepo_tracerCarrier" stroke-linecap="round" stroke-linejoin="round"/>

<g id="SVGRepo_iconCarrier"> <g> <path d="M255.249,177.345c0.021-0.104,0.109-0.148,0.109-0.268c-0.115-44.427-3.149-89.017-5.453-133.382 c1.233-0.598,1.86-2.668,0.327-3.736c-2.901-2.021-5.718-4.168-8.431-6.437c-2.003-1.674-4.215-4.709-6.846-5.197 c-0.552-0.102-0.872,0.244-0.986,0.702c-5.202-2.249-12.618-2.146-18.107-2.253c-1.048-0.021-1.517,1.077-1.296,1.922 c-1.273,2.592-2.457,5.233-3.606,7.889c-0.745-2.173-1.085-4.412-0.967-6.915c0.049-1.045-0.917-1.896-1.913-1.912 c-3.818-0.063-7.646-0.568-11.458-0.823c-0.22-0.015-0.356,0.118-0.527,0.197c-0.65-1.465-3.386-1.19-3.528,0.833 c-0.369,5.24-0.724,10.482-1.094,15.723c-1.211-5.312-2.274-10.654-3.303-16.022c0.471-0.96,0.25-2.236-1.091-2.524 c-30.773-6.594-61.685-12.231-92.845-16.678C66.495,4.504,36.831-1.572,8.843,0.375C8.168,0.422,7.947,1.438,8.676,1.613 c28.704,6.9,59.663,7.195,88.913,11.445c29.647,4.307,59.143,9.649,88.489,15.665c0.612,9.017,2.376,17.901,4.678,26.631 c0.536,2.033,3.335,1.454,3.496-0.473c0.701-8.42,1.257-16.854,1.865-25.282c0.057,0.018,0.069,0.079,0.132,0.089 c3.305,0.55,6.657,0.955,9.95,1.587c0.067,3.924,1.071,7.57,3.128,11.012c0.684,1.144,2.728,1.378,3.347,0 c1.825-4.062,3.756-8.101,5.418-12.235c2.299,0.385,4.6,0.763,6.898,1.159c2.847,0.49,5.856,1.388,8.734,1.107 c0.03-0.003,0.05-0.031,0.08-0.035c-2.789,43.151-0.171,87.291,0.389,130.566c-68.266-9.489-141.744-13.614-209.803-0.307 c-0.038-0.032-0.062-0.072-0.103-0.102c-0.184-0.136-0.368-0.273-0.551-0.409c-0.021-0.015-0.041-0.015-0.061-0.029 c1.069-2.152,1.135-4.595,0.036-7.376c-0.242-4.47-0.505-8.938-0.788-13.405c-0.494-7.818-1.056-15.631-1.677-23.439 c-1.131-14.229-1.819-28.711-4.899-42.673c0.948-0.588,1.843-1.313,2.751-1.897c1.698-1.092,3.442-2.104,5.219-3.063 c1.355-0.732,0.974-2.769-0.416-3.184c-3.648-1.088-7.122-2.664-10.715-3.911c-0.999-20.251-2.971-40.784-5.96-60.827 C7.065,1.153,5.32,1.42,5.347,2.48C5.872,23.021,7.54,43.898,10.13,64.284c0.175,1.385,1.742,1.825,2.588,1.218 c2.314,1.114,4.66,2.162,6.981,3.261c-0.927,0.525-1.876,1.01-2.78,1.577c-1.575,0.988-3.351,1.851-4.287,3.5 c-0.63,1.109,0.326,2.252,1.482,2.156c-0.07,19.437,3.022,39.125,4.326,58.523c0.478,7.091-1.874,22.124,1.71,29.378 c-0.171,0.434-0.103,0.953,0.147,1.336c-0.151,0.482-0.093,1.04,0.363,1.556c2.688,3.034,5.523,5.909,8.377,8.788 c2.281,2.301,4.618,5.659,7.72,6.798c0.135,0.713,0.653,1.346,1.504,1.276c26.208-2.14,51.818-3.415,78.05-1.215 c-2.935,23.013-4.34,46.622-3.939,69.556c0.011,0.661,0.325,1.06,0.717,1.348c-2.339,13.027,39.877,5.662,44.013,5.186 c0.144-0.016,0.208-0.126,0.333-0.169c1.3,0.127,2.557-0.174,3.514-1.026c0.006-0.003,0.018,0,0.024-0.004 c0.872-0.168,1.704-0.945,1.533-2.076c-3.052-20.245-6.626-40.423-10.017-60.614c-0.642-3.819-0.922-8.288-1.746-12.496 c33.684,2.761,69.255-0.157,102.986-1.438C255.674,180.631,256.137,178.525,255.249,177.345z M132.224,251.327 c-5.379,0.27-10.868,0.009-16.185,0.849c0.01-0.066,0.044-0.114,0.049-0.184c1.989-27.564,3.733-55.305,5.177-82.913 c3.204,0.059,6.411,0.087,9.612,0.251c2.38,0.122,4.785,0.447,7.16,0.324c-0.08,0.155-0.19,0.293-0.166,0.506 c2.972,26.392,6.211,53.725,12.224,79.603C144.149,250.449,138.209,251.026,132.224,251.327z M150.206,179.812 c-0.5-1.915-1.142-3.743-2.058-5.37c-1.774-3.152-5.847-4.341-7.778-7.285c-0.259-0.395-0.616-0.495-0.972-0.486 c-5.418-1.686-12.653-0.73-18.203-0.074c-0.453-1.156-2.464-1.362-2.698,0.085c-0.615,3.794-1.072,7.666-1.597,11.507 c-25.896-2.436-52.265-2.536-77.915,2.158c-1.172-3.16-4.627-5.413-7.035-7.684c-2.474-2.333-4.982-4.612-7.544-6.841 c0.043-0.061,0.113-0.092,0.148-0.16c0.02-0.039,0.04-0.077,0.059-0.116c69.631-4.252,136.424-7.805,205.911,1.466 c-0.021,0.555,0.189,1.111,0.748,1.429c4.973,2.827,10.116,5.507,15.309,8.013C214.853,176.083,181.416,175.307,150.206,179.812z M238.289,167.893c0.002-0.04,0.021-0.067,0.021-0.108c-0.006-0.731-0.001-1.468-0.006-2.2c0.074-0.334,0.065-0.66-0.003-0.975 c-0.271-43.404,1.602-87.738-1.856-131.004c1.188,1.186,2.538,2.258,3.52,3.178c1.88,1.76,3.874,3.378,5.905,4.951 c-0.106,0.253-0.163,0.546-0.15,0.886c1.755,43.872,2.815,88.028,6.597,131.784C247.75,172.063,243.039,169.916,238.289,167.893z"/> <path d="M201.357,104.788c-4.315-9.52-17.029-8.647-21.689-0.027c-0.344-0.177-0.703-0.251-1.065-0.221 c-1.6-0.986-3.449-1.721-5.06-2.479c-1.227-0.576-2.449-1.162-3.68-1.729c-0.565-0.261-1.134-0.567-1.717-0.785 c-0.243-0.063-0.426-0.203-0.549-0.422c-0.006-0.012-0.01-0.004-0.016-0.015c0.554-0.437,0.691-1.406-0.2-1.542 c-0.153-0.023-0.27,0.002-0.41-0.002c0.956-4.149,1.12-8.564,0.334-13.02c-4.58-25.946-31.679-37.923-55.814-35.771 c-9.644,0.86-19.721,4.262-27.861,9.921c-1.645-1.582-4.16-2.617-6.139-3.603c-1.334-0.664-2.706-1.267-4.099-1.811 c3.76-7.301,3.077-19.222-6.72-20.207c-9.057-0.912-13.502,8.81-11.557,16.405c-3.478-0.242-6.948,0.476-9.405,3.314 c-2.717,3.14-2.714,7.605-0.219,10.881c4.62,6.065,17.656,6.236,20.527-1.267c1.664,1.123,3.387,2.163,5.149,3.116 c1.09,0.59,2.139,1.246,3.244,1.671c-4.63,5.836-7.512,12.947-7.448,21.298c0.162,20.93,19.5,36.293,39.147,33.174 c-2.986,3.44-4.559,8.379-1.53,11.954c2.116,2.498,5.711,2.528,8.385,0.91c1.249-0.756,2.158-1.885,2.879-3.133 c0.122,2.693,1.435,5.078,4.799,5.29c2.508,0.159,4.965-1.289,6.361-3.321c0.14-0.205,0.264-0.495,0.401-0.734 c1.694,2.454,4.648,3.49,7.564,2.612c3.411-1.027,5.955-4.306,6.139-7.845c0.09-1.724-0.381-3.878-1.329-5.717 c8.165-0.521,15.219-4.452,20.218-10.274c1.525,0.755,3.05,1.509,4.575,2.264c1.47,0.727,2.952,1.698,4.533,2.182 c-4.292,4.836,2.147,14.244,7.862,16.097c7.786,2.525,15.46-4.24,14.298-11.525C198.823,120.291,204.899,112.604,201.357,104.788z M134.082,117.559c-2.649,0-2.475,3.682,0,3.998c0.05,0.007,0.098,0.003,0.148,0.009c0.809,1.077,1.78,2.014,2.253,3.381 c0.738,2.132,0.278,4.603-1.685,5.94c-3.821,2.604-6.41-1.77-5.103-5.135c0.267-0.687-0.485-1.243-1.116-1.109 c-0.648-1.045-2.097-1.313-2.842-0.129c-1.584,2.52-0.273,6.803-3.704,8.239c-4.123,1.724-3.586-4.093-2.886-6.292 c0.336-1.055-1.04-1.645-1.725-0.942c0-0.069,0.02-0.14,0.019-0.209c-0.033-1.675-2.364-2.4-3.219-0.871 c-0.929,1.66-1.394,3.671-2.541,5.191c-1.283,1.7-3.673,2.443-4.399-0.136c-0.853-3.035,0.858-6.291,2.868-8.736 c0.522-0.153,1.047-0.254,1.567-0.435c1.062-0.368,1.002-1.957-0.079-2.143c-0.139-0.13-0.313-0.216-0.529-0.142 c-0.05,0.017-0.099,0.054-0.149,0.072c-18.432,0.673-39.461-7.673-39.598-29.615c-0.143-22.514,23.617-34.903,43.1-35.446 c15.706-0.437,31.685,4.122,41.422,17.208C170.48,89.876,160.521,117.557,134.082,117.559z"/> <path d="M124.511,107.12c-1.278-1.116-3.231-1.002-4.15,0.535c-1.421,2.378-2.654,5.045-3.124,7.792 c-0.389,2.274,2.94,4.199,4.071,1.716c0.527-1.157,1.05-2.288,1.615-3.397c0.617,0.958,1.285,1.853,2.328,2.389 c0.879,0.451,1.974,0.233,2.496-0.655C129.549,112.439,126.766,109.09,124.511,107.12z"/> <path d="M100.109,95.719c-6.978,1.912-6.185,12.129-0.537,14.238c1.858,1.291,4.238,1.735,6.775,0.569 C114.284,106.878,107.865,93.592,100.109,95.719z"/> <path d="M146.702,79.911c-8.156-2.677-14.653,5.673-14.389,13.246c-0.437,2.998-0.229,6.037,0.63,8.299 c3.501,9.22,15.49,7.072,19.613-0.358C156.295,94.357,155.102,82.667,146.702,79.911z"/> </g> </g>

</svg>