<!DOCTYPE svg PUBLIC "-//W3C//DTD SVG 1.1//EN" "http://www.w3.org/Graphics/SVG/1.1/DTD/svg11.dtd">

<!-- Uploaded to: SVG Repo, www.svgrepo.com, Transformed by: SVG Repo Mixer Tools -->
<svg version="1.1" id="designs" xmlns="http://www.w3.org/2000/svg" xmlns:xlink="http://www.w3.org/1999/xlink" width="35px" height="35px" viewBox="0 0 32 32" xml:space="preserve" fill="#ff0000" stroke="#ff0000">

<g id="SVGRepo_bgCarrier" stroke-width="0"/>

<g id="SVGRepo_tracerCarrier" stroke-linecap="round" stroke-linejoin="round"/>

<g id="SVGRepo_iconCarrier"> <style type="text/css"> .scienceandfiction_twee{fill:#CC2954;} .scienceandfiction_een{fill:#2B4099;} </style> <path class="scienceandfiction_twee" d="M16,20c0.551,0,1,0.449,1,1s-0.449,1-1,1c-0.551,0-1-0.449-1-1S15.449,20,16,20z M16,19 c-1.105,0-2,0.895-2,2s0.895,2,2,2s2-0.895,2-2S17.105,19,16,19L16,19z M11,22h-1v1h1V22z M22,22h-1v1h1V22z M27,12 c1.103,0,2,0.897,2,2c0,0.719-0.55,1.5-0.55,1.5S29,16.094,29,17c0,1.103-0.897,2-2,2c-0.953,0-2-0.641-2-2 c0-0.875,0.55-1.5,0.55-1.5S25,14.781,25,14C25,13,25.781,12,27,12z M27,11c-1.812,0-3,1.438-3,3c0,0.55,0.15,1.06,0.4,1.5 C24.15,15.94,24,16.45,24,17c0,1.706,1.365,3,3,3c1.66,0,3-1.34,3-3c0-0.55-0.15-1.06-0.4-1.5c0.25-0.44,0.4-0.95,0.4-1.5 C30,12.34,28.66,11,27,11L27,11z M5,12c1.103,0,2,0.897,2,2c0,0.844-0.55,1.5-0.55,1.5S7,16.125,7,17c0,1.103-0.897,2-2,2 c-0.953,0-2-0.641-2-2c0-0.844,0.55-1.5,0.55-1.5S3,14.844,3,14C3,13,3.781,12,5,12z M5,11c-1.812,0-3,1.438-3,3 c0,0.55,0.15,1.06,0.4,1.5C2.15,15.94,2,16.45,2,17c0,1.694,1.271,3,3,3c1.66,0,3-1.34,3-3c0-0.55-0.15-1.06-0.4-1.5 C7.85,15.06,8,14.55,8,14C8,12.34,6.66,11,5,11L5,11z M21,12h-1v3.5h1V12L21,12z M21,18.5h-1V20h1V18.5z M12,12h-1v3.5h1V12L12,12z M12,18.5h-1V20h1V18.5z"/> <path class="scienceandfiction_een" d="M24.71,20.72C24.9,21.11,25,21.54,25,22c0,1.31-0.83,2.42-2,2.82c0,0-0.26,2.44-1,3.18 c-1.24,1.24-3.62,2-6,2s-4.76-0.76-6-2c-0.74-0.74-1-3.18-1-3.18c-1.17-0.4-2-1.51-2-2.82c0-0.46,0.1-0.89,0.29-1.28 c-0.28-0.36-0.54-0.74-0.77-1.14c0.3-0.17,0.56-0.39,0.78-0.65c0.23,0.41,1.16,1.67,1.16,1.67S8,21.328,8,22 c0,1.781,1.93,2.08,1.93,2.08c0.035,0.602,0.334,2.797,0.78,3.21C11.859,28.353,13.7,29,16,29s4.109-0.641,5.29-1.71 c0.115-0.104,0.632-1.009,0.78-3.21c0,0,1.93-0.314,1.93-2.08c0-0.609-0.46-1.4-0.46-1.4s0.93-1.26,1.16-1.67 c0.22,0.26,0.48,0.48,0.78,0.65C25.25,19.98,24.99,20.36,24.71,20.72z M16,3c-5.05,0-9.3,3.39-10.59,8.03 c0.34,0.04,0.67,0.15,0.96,0.3C7.53,7.11,11.41,4,16,4s8.47,3.11,9.63,7.33c0.29-0.15,0.62-0.26,0.96-0.3C25.3,6.39,21.05,3,16,3z M19,17c0,0.551,0.449,1,1,1s1-0.449,1-1s-0.449-1-1-1S19,16.449,19,17z M20,15c1.105,0,2,0.895,2,2s-0.895,2-2,2s-2-0.895-2-2 S18.895,15,20,15L20,15z M11,17c0,0.551,0.449,1,1,1s1-0.449,1-1s-0.449-1-1-1S11,16.449,11,17z M12,15c1.105,0,2,0.895,2,2 s-0.895,2-2,2s-2-0.895-2-2S10.895,15,12,15L12,15z"/> </g>

</svg>