<!DOCTYPE svg PUBLIC "-//W3C//DTD SVG 1.1//EN" "http://www.w3.org/Graphics/SVG/1.1/DTD/svg11.dtd">

<!-- Uploaded to: SVG Repo, www.svgrepo.com, Transformed by: SVG Repo Mixer Tools -->
<svg fill="#ff0000" width="35px" height="35px" viewBox="0 0 64 64" xmlns="http://www.w3.org/2000/svg" stroke="#ff0000">

<g id="SVGRepo_bgCarrier" stroke-width="0"/>

<g id="SVGRepo_tracerCarrier" stroke-linecap="round" stroke-linejoin="round"/>

<g id="SVGRepo_iconCarrier"> <g id="western"> <path d="M51.3384,11.8184a1,1,0,0,0,1.414,0l.7669-.767.7668.767A1,1,0,1,0,55.7,10.4043l-.767-.7671L55.7,8.87a1,1,0,1,0-1.4141-1.414l-.7668.7669-.7669-.7669a1,1,0,1,0-1.414,1.414l.7669.7671-.7669.7671A1,1,0,0,0,51.3384,11.8184Z"/> <circle cx="5" cy="56" r="1"/> <path d="M54.499,32.1459C59.3359,29.6,62,26.2987,62,22.8223c0-5.7867-6.9521-7.5542-15.7534-9.7915A1.0013,1.0013,0,0,0,46,13V11.52A7.5286,7.5286,0,0,0,38.48,4H23.52A7.5286,7.5286,0,0,0,16,11.52V13a1.0013,1.0013,0,0,0-.2466.0308C6.9521,15.2681,0,17.0356,0,22.8223c0,3.4776,2.6639,6.777,7.5009,9.323a24,24,0,1,0,46.9981.0006ZM18,11.52A5.526,5.526,0,0,1,23.52,6H38.48A5.526,5.526,0,0,1,44,11.52V13H18ZM2,22.8223C2,18.8135,7.3638,17.229,16.125,15h29.75C54.6362,17.229,60,18.8135,60,22.8223c0,2.6008-2.14,5.1742-6.0059,7.3109A23.9118,23.9118,0,0,0,47.9226,20H50a1,1,0,0,0,0-2H12a1,1,0,0,0,0,2h2.0759A23.8976,23.8976,0,0,0,8.0051,30.132C4.1391,27.9959,2,25.4237,2,22.8223ZM31,59A21.9947,21.9947,0,0,1,17.0453,20H44.9664c.01.0085.0134.0206.0233.0288A21.9947,21.9947,0,0,1,31,59Z"/> <circle cx="24" cy="29" r="2"/> <circle cx="38" cy="29" r="2"/> <path d="M37.8174,38.11C36.3262,37.0249,34.918,36,33.1094,36a3.89,3.89,0,0,0-2.3579.7871A3.8925,3.8925,0,0,0,28.3936,36c-1.8086,0-3.2168,1.0249-4.7081,2.11-2.395,1.7421-4.87,3.5463-9.6357,1.5043a1.069,1.069,0,0,0-1.3467.2935,1.0471,1.0471,0,0,0,.0816,1.3325c.7924.9453,6.3715,4.76,12.0112,4.7593.2463,0,.4925-.0212.7388-.0364A3.99,3.99,0,0,0,29.0215,48h3.957A4.0305,4.0305,0,0,0,36.46,45.9815c5.7213.1138,11.4535-3.7823,12.2579-4.7408a1.0472,1.0472,0,0,0,.0815-1.3325,1.067,1.067,0,0,0-1.3467-.2935C42.69,41.6558,40.2124,39.853,37.8174,38.11ZM29.0215,46a1.9969,1.9969,0,0,1-1.2149-.4248,9.4213,9.4213,0,0,0,1.6231-.6123,6.08,6.08,0,0,0,1.3218-.8726,6.067,6.067,0,0,0,1.3217.8726,9.4788,9.4788,0,0,0,1.9935.7056A2.01,2.01,0,0,1,32.9785,46Zm3.9453-2.8262a3.269,3.269,0,0,1-1.3687-1.1391,1.0383,1.0383,0,0,0-1.6933,0,3.2683,3.2683,0,0,1-1.3687,1.1391c-3.2143,1.605-7.0742.6167-9.9673-.6811a11.85,11.85,0,0,0,6.2935-2.7656C26.1357,38.8,27.2358,38,28.3936,38a1.9291,1.9291,0,0,1,1.5561.792,1.0355,1.0355,0,0,0,1.604-.0005A1.9278,1.9278,0,0,1,33.1094,38c1.1577,0,2.2578.8,3.5312,1.7275a11.8489,11.8489,0,0,0,6.293,2.7652C40.0415,43.791,36.1807,44.78,32.9668,43.1738Zm15.2749-1.7212-.002.001-.3935-.9194Z"/> <path d="M18.5527,27.8945a1,1,0,0,0,1.3418-.4472c1.627-3.2549,5.7383-2.4991,5.9121-2.4663a1,1,0,0,0,.39-1.9615c-1.99-.3974-6.2383-.17-8.0908,3.5332A1,1,0,0,0,18.5527,27.8945Z"/> <path d="M32,49H30a1,1,0,0,0,0,2h2a1,1,0,0,0,0-2Z"/> <path d="M56,51a3,3,0,1,0,3,3A3.0033,3.0033,0,0,0,56,51Zm0,4a1,1,0,1,1,1-1A1.0013,1.0013,0,0,1,56,55Z"/> </g> </g>

</svg>